<svg width="175" height="57" viewBox="0 0 472 57" fill="none" xmlns="http://www.w3.org/2000/svg">
<path d="M25.944 1.8C30.8587 1.8 35.14 2.61066 38.788 4.232C42.436 5.85333 45.248 8.184 47.224 11.224C49.2 14.264 50.188 17.8107 50.188 21.864C50.188 25.9173 49.2 29.464 47.224 32.504C45.248 35.544 42.436 37.8747 38.788 39.496C35.14 41.1173 30.8587 41.928 25.944 41.928H18.268V55H0.332V1.8H25.944ZM24.804 28.096C27.236 28.096 29.06 27.564 30.276 26.5C31.492 25.3853 32.1 23.84 32.1 21.864C32.1 19.888 31.492 18.368 30.276 17.304C29.06 16.1893 27.236 15.632 24.804 15.632H18.268V28.096H24.804ZM84.7045 56.216C78.9791 56.216 73.8365 55.0253 69.2765 52.644C64.7165 50.2627 61.1445 46.9693 58.5605 42.764C55.9765 38.508 54.6845 33.72 54.6845 28.4C54.6845 23.08 55.9765 18.3173 58.5605 14.112C61.1445 9.856 64.7165 6.53733 69.2765 4.156C73.8365 1.77466 78.9791 0.583998 84.7045 0.583998C90.4298 0.583998 95.5725 1.77466 100.132 4.156C104.692 6.53733 108.264 9.856 110.848 14.112C113.432 18.3173 114.724 23.08 114.724 28.4C114.724 33.72 113.432 38.508 110.848 42.764C108.264 46.9693 104.692 50.2627 100.132 52.644C95.5725 55.0253 90.4298 56.216 84.7045 56.216ZM84.7045 41.7C86.9338 41.7 88.9351 41.168 90.7085 40.104C92.5325 38.9893 93.9765 37.444 95.0405 35.468C96.1045 33.4413 96.6365 31.0853 96.6365 28.4C96.6365 25.7147 96.1045 23.384 95.0405 21.408C93.9765 19.3813 92.5325 17.836 90.7085 16.772C88.9351 15.6573 86.9338 15.1 84.7045 15.1C82.4751 15.1 80.4485 15.6573 78.6245 16.772C76.8511 17.836 75.4325 19.3813 74.3685 21.408C73.3045 23.384 72.7725 25.7147 72.7725 28.4C72.7725 31.0853 73.3045 33.4413 74.3685 35.468C75.4325 37.444 76.8511 38.9893 78.6245 40.104C80.4485 41.168 82.4751 41.7 84.7045 41.7ZM144.034 41.624H139.17V55H121.234V1.8H146.846C151.761 1.8 156.042 2.61066 159.69 4.232C163.338 5.85333 166.15 8.184 168.126 11.224C170.102 14.264 171.09 17.8107 171.09 21.864C171.09 25.664 170.229 28.9827 168.506 31.82C166.784 34.6573 164.301 36.912 161.058 38.584L172.23 55H153.078L144.034 41.624ZM153.002 21.864C153.002 19.888 152.394 18.368 151.178 17.304C149.962 16.1893 148.138 15.632 145.706 15.632H139.17V28.096H145.706C148.138 28.096 149.962 27.564 151.178 26.5C152.394 25.3853 153.002 23.84 153.002 21.864ZM188.673 15.708H173.093V1.8H222.189V15.708H206.609V55H188.673V15.708ZM244.784 15.328V24.448H266.976V37.976H244.784V55H226.848V1.8H270.092V15.328H244.784ZM303.279 56.216C297.553 56.216 292.411 55.0253 287.851 52.644C283.291 50.2627 279.719 46.9693 277.135 42.764C274.551 38.508 273.259 33.72 273.259 28.4C273.259 23.08 274.551 18.3173 277.135 14.112C279.719 9.856 283.291 6.53733 287.851 4.156C292.411 1.77466 297.553 0.583998 303.279 0.583998C309.004 0.583998 314.147 1.77466 318.707 4.156C323.267 6.53733 326.839 9.856 329.423 14.112C332.007 18.3173 333.299 23.08 333.299 28.4C333.299 33.72 332.007 38.508 329.423 42.764C326.839 46.9693 323.267 50.2627 318.707 52.644C314.147 55.0253 309.004 56.216 303.279 56.216ZM303.279 41.7C305.508 41.7 307.509 41.168 309.283 40.104C311.107 38.9893 312.551 37.444 313.615 35.468C314.679 33.4413 315.211 31.0853 315.211 28.4C315.211 25.7147 314.679 23.384 313.615 21.408C312.551 19.3813 311.107 17.836 309.283 16.772C307.509 15.6573 305.508 15.1 303.279 15.1C301.049 15.1 299.023 15.6573 297.199 16.772C295.425 17.836 294.007 19.3813 292.943 21.408C291.879 23.384 291.347 25.7147 291.347 28.4C291.347 31.0853 291.879 33.4413 292.943 35.468C294.007 37.444 295.425 38.9893 297.199 40.104C299.023 41.168 301.049 41.7 303.279 41.7ZM339.809 1.8H357.745V41.092H381.761V55H339.809V1.8ZM386.715 1.8H404.651V55H386.715V1.8ZM441.177 56.216C435.452 56.216 430.309 55.0253 425.749 52.644C421.189 50.2627 417.617 46.9693 415.033 42.764C412.449 38.508 411.157 33.72 411.157 28.4C411.157 23.08 412.449 18.3173 415.033 14.112C417.617 9.856 421.189 6.53733 425.749 4.156C430.309 1.77466 435.452 0.583998 441.177 0.583998C446.902 0.583998 452.045 1.77466 456.605 4.156C461.165 6.53733 464.737 9.856 467.321 14.112C469.905 18.3173 471.197 23.08 471.197 28.4C471.197 33.72 469.905 38.508 467.321 42.764C464.737 46.9693 461.165 50.2627 456.605 52.644C452.045 55.0253 446.902 56.216 441.177 56.216ZM441.177 41.7C443.406 41.7 445.408 41.168 447.181 40.104C449.005 38.9893 450.449 37.444 451.513 35.468C452.577 33.4413 453.109 31.0853 453.109 28.4C453.109 25.7147 452.577 23.384 451.513 21.408C450.449 19.3813 449.005 17.836 447.181 16.772C445.408 15.6573 443.406 15.1 441.177 15.1C438.948 15.1 436.921 15.6573 435.097 16.772C433.324 17.836 431.905 19.3813 430.841 21.408C429.777 23.384 429.245 25.7147 429.245 28.4C429.245 31.0853 429.777 33.4413 430.841 35.468C431.905 37.444 433.324 38.9893 435.097 40.104C436.921 41.168 438.948 41.7 441.177 41.7Z" fill="#E0E0E0"/>
</svg>
